<?xml version="1.0" encoding="UTF-8" standalone="no"?>
<!DOCTYPE svg PUBLIC "-//W3C//DTD SVG 1.1//EN"
 "http://www.w3.org/Graphics/SVG/1.1/DTD/svg11.dtd">
<!-- Generated by graphviz version 12.1.1 (20240910.0053)
 -->
<!-- Title: INFRA Pages: 1 -->
<svg width="2025pt" height="296pt"
 viewBox="0.00 0.00 2024.68 296.00" xmlns="http://www.w3.org/2000/svg" xmlns:xlink="http://www.w3.org/1999/xlink">
<g id="graph0" class="graph" transform="scale(1 1) rotate(0) translate(4 292)">
<title>INFRA</title>
<polygon fill="white" stroke="none" points="-4,4 -4,-292 2020.68,-292 2020.68,4 -4,4"/>
<!-- invoices&#45;bucket -->
<g id="node1" class="node">
<title>invoices&#45;bucket</title>
<path fill="#fff5cd" stroke="black" stroke-width="2" d="M146.34,-281.45C146.34,-285.07 116.6,-288 79.99,-288 43.38,-288 13.64,-285.07 13.64,-281.45 13.64,-281.45 13.64,-222.55 13.64,-222.55 13.64,-218.93 43.38,-216 79.99,-216 116.6,-216 146.34,-218.93 146.34,-222.55 146.34,-222.55 146.34,-281.45 146.34,-281.45"/>
<path fill="none" stroke="black" stroke-width="2" d="M146.34,-281.45C146.34,-277.84 116.6,-274.91 79.99,-274.91 43.38,-274.91 13.64,-277.84 13.64,-281.45"/>
<text text-anchor="middle" x="79.99" y="-256.2" font-family="Arial" font-size="14.00">invoices&#45;bucket</text>
<text text-anchor="middle" x="79.99" y="-239.4" font-family="Arial" font-size="14.00">(AWS::S3::Bucket)</text>
</g>
<!-- document&#45;event&#45;queue -->
<g id="node14" class="node">
<title>document&#45;event&#45;queue</title>
<path fill="#cce0ac" stroke="black" stroke-width="2" d="M147.99,-180C147.99,-180 12,-180 12,-180 6,-180 0,-174 0,-168 0,-168 0,-120 0,-120 0,-114 6,-108 12,-108 12,-108 147.99,-108 147.99,-108 153.99,-108 159.99,-114 159.99,-120 159.99,-120 159.99,-168 159.99,-168 159.99,-174 153.99,-180 147.99,-180"/>
<text text-anchor="middle" x="79.99" y="-148.2" font-family="Arial" font-size="14.00">document&#45;event&#45;queue</text>
<text text-anchor="middle" x="79.99" y="-131.4" font-family="Arial" font-size="14.00">(AWS::SQS::Queue)</text>
</g>
<!-- invoices&#45;bucket&#45;&gt;document&#45;event&#45;queue -->
<g id="edge1" class="edge">
<title>invoices&#45;bucket&#45;&gt;document&#45;event&#45;queue</title>
<path fill="none" stroke="black" d="M79.99,-215.7C79.99,-207.93 79.99,-199.57 79.99,-191.43"/>
<polygon fill="black" stroke="black" points="83.49,-191.66 79.99,-181.66 76.49,-191.66 83.49,-191.66"/>
</g>
<!-- extract&#45;table&#45;data&#45;source&#45;code&#45;bucket -->
<g id="node2" class="node">
<title>extract&#45;table&#45;data&#45;source&#45;code&#45;bucket</title>
<path fill="#fff5cd" stroke="black" stroke-width="2" d="M1302.27,-65.45C1302.27,-69.07 1245.67,-72 1175.99,-72 1106.31,-72 1049.71,-69.07 1049.71,-65.45 1049.71,-65.45 1049.71,-6.55 1049.71,-6.55 1049.71,-2.93 1106.31,0 1175.99,0 1245.67,0 1302.27,-2.93 1302.27,-6.55 1302.27,-6.55 1302.27,-65.45 1302.27,-65.45"/>
<path fill="none" stroke="black" stroke-width="2" d="M1302.27,-65.45C1302.27,-61.84 1245.67,-58.91 1175.99,-58.91 1106.31,-58.91 1049.71,-61.84 1049.71,-65.45"/>
<text text-anchor="middle" x="1175.99" y="-40.2" font-family="Arial" font-size="14.00">extract&#45;table&#45;data&#45;source&#45;code&#45;bucket</text>
<text text-anchor="middle" x="1175.99" y="-23.4" font-family="Arial" font-size="14.00">(AWS::S3::Bucket)</text>
</g>
<!-- table&#45;sanity&#45;check&#45;source&#45;code&#45;bucket -->
<g id="node3" class="node">
<title>table&#45;sanity&#45;check&#45;source&#45;code&#45;bucket</title>
<path fill="#fff5cd" stroke="black" stroke-width="2" d="M1032.21,-65.45C1032.21,-69.07 974.74,-72 903.99,-72 833.24,-72 775.77,-69.07 775.77,-65.45 775.77,-65.45 775.77,-6.55 775.77,-6.55 775.77,-2.93 833.24,0 903.99,0 974.74,0 1032.21,-2.93 1032.21,-6.55 1032.21,-6.55 1032.21,-65.45 1032.21,-65.45"/>
<path fill="none" stroke="black" stroke-width="2" d="M1032.21,-65.45C1032.21,-61.84 974.74,-58.91 903.99,-58.91 833.24,-58.91 775.77,-61.84 775.77,-65.45"/>
<text text-anchor="middle" x="903.99" y="-40.2" font-family="Arial" font-size="14.00">table&#45;sanity&#45;check&#45;source&#45;code&#45;bucket</text>
<text text-anchor="middle" x="903.99" y="-23.4" font-family="Arial" font-size="14.00">(AWS::S3::Bucket)</text>
</g>
<!-- start&#45;step&#45;function&#45;source&#45;code&#45;bucket -->
<g id="node4" class="node">
<title>start&#45;step&#45;function&#45;source&#45;code&#45;bucket</title>
<path fill="#fff5cd" stroke="black" stroke-width="2" d="M433.82,-173.45C433.82,-177.07 376.53,-180 305.99,-180 235.46,-180 178.16,-177.07 178.16,-173.45 178.16,-173.45 178.16,-114.55 178.16,-114.55 178.16,-110.93 235.46,-108 305.99,-108 376.53,-108 433.82,-110.93 433.82,-114.55 433.82,-114.55 433.82,-173.45 433.82,-173.45"/>
<path fill="none" stroke="black" stroke-width="2" d="M433.82,-173.45C433.82,-169.84 376.53,-166.91 305.99,-166.91 235.46,-166.91 178.16,-169.84 178.16,-173.45"/>
<text text-anchor="middle" x="305.99" y="-148.2" font-family="Arial" font-size="14.00">start&#45;step&#45;function&#45;source&#45;code&#45;bucket</text>
<text text-anchor="middle" x="305.99" y="-131.4" font-family="Arial" font-size="14.00">(AWS::S3::Bucket)</text>
</g>
<!-- invalid&#45;invoice&#45;error&#45;topic -->
<g id="node5" class="node">
<title>invalid&#45;invoice&#45;error&#45;topic</title>
<path fill="#cce0ac" stroke="black" stroke-width="2" d="M612.19,-180C612.19,-180 463.8,-180 463.8,-180 457.8,-180 451.8,-174 451.8,-168 451.8,-168 451.8,-120 451.8,-120 451.8,-114 457.8,-108 463.8,-108 463.8,-108 612.19,-108 612.19,-108 618.19,-108 624.19,-114 624.19,-120 624.19,-120 624.19,-168 624.19,-168 624.19,-174 618.19,-180 612.19,-180"/>
<text text-anchor="middle" x="537.99" y="-148.2" font-family="Arial" font-size="14.00">invalid&#45;invoice&#45;error&#45;topic</text>
<text text-anchor="middle" x="537.99" y="-131.4" font-family="Arial" font-size="14.00">(AWS::SNS::Topic)</text>
</g>
<!-- data&#45;storage&#45;failure&#45;topic -->
<g id="node6" class="node">
<title>data&#45;storage&#45;failure&#45;topic</title>
<path fill="#cce0ac" stroke="black" stroke-width="2" d="M801.81,-180C801.81,-180 654.18,-180 654.18,-180 648.18,-180 642.18,-174 642.18,-168 642.18,-168 642.18,-120 642.18,-120 642.18,-114 648.18,-108 654.18,-108 654.18,-108 801.81,-108 801.81,-108 807.81,-108 813.81,-114 813.81,-120 813.81,-120 813.81,-168 813.81,-168 813.81,-174 807.81,-180 801.81,-180"/>
<text text-anchor="middle" x="727.99" y="-148.2" font-family="Arial" font-size="14.00">data&#45;storage&#45;failure&#45;topic</text>
<text text-anchor="middle" x="727.99" y="-131.4" font-family="Arial" font-size="14.00">(AWS::SNS::Topic)</text>
</g>
<!-- vpc -->
<g id="node7" class="node">
<title>vpc</title>
<path fill="#e6e6e6" stroke="black" stroke-width="2" d="M1635.39,-72C1635.39,-72 1530.6,-72 1530.6,-72 1524.6,-72 1518.6,-66 1518.6,-60 1518.6,-60 1518.6,-12 1518.6,-12 1518.6,-6 1524.6,0 1530.6,0 1530.6,0 1635.39,0 1635.39,0 1641.39,0 1647.39,-6 1647.39,-12 1647.39,-12 1647.39,-60 1647.39,-60 1647.39,-66 1641.39,-72 1635.39,-72"/>
<text text-anchor="middle" x="1582.99" y="-40.2" font-family="Arial" font-size="14.00">vpc</text>
<text text-anchor="middle" x="1582.99" y="-23.4" font-family="Arial" font-size="14.00">(AWS::EC2::VPC)</text>
</g>
<!-- redshift&#45;security&#45;group -->
<g id="node8" class="node">
<title>redshift&#45;security&#45;group</title>
<path fill="#e6e6e6" stroke="black" stroke-width="2" d="M1442.74,-180C1442.74,-180 1277.25,-180 1277.25,-180 1271.25,-180 1265.25,-174 1265.25,-168 1265.25,-168 1265.25,-120 1265.25,-120 1265.25,-114 1271.25,-108 1277.25,-108 1277.25,-108 1442.74,-108 1442.74,-108 1448.74,-108 1454.74,-114 1454.74,-120 1454.74,-120 1454.74,-168 1454.74,-168 1454.74,-174 1448.74,-180 1442.74,-180"/>
<text text-anchor="middle" x="1359.99" y="-148.2" font-family="Arial" font-size="14.00">redshift&#45;security&#45;group</text>
<text text-anchor="middle" x="1359.99" y="-131.4" font-family="Arial" font-size="14.00">(AWS::EC2::SecurityGroup)</text>
</g>
<!-- redshift&#45;security&#45;group&#45;&gt;vpc -->
<g id="edge2" class="edge">
<title>redshift&#45;security&#45;group&#45;&gt;vpc</title>
<path fill="none" stroke="black" d="M1434.56,-107.56C1458.16,-96.34 1484.25,-83.93 1507.89,-72.7"/>
<polygon fill="black" stroke="black" points="1509.32,-75.9 1516.85,-68.44 1506.31,-69.57 1509.32,-75.9"/>
</g>
<!-- public&#45;subnets -->
<g id="node9" class="node">
<title>public&#45;subnets</title>
<path fill="#e6e6e6" stroke="black" stroke-width="2" d="M1643.18,-180C1643.18,-180 1522.8,-180 1522.8,-180 1516.8,-180 1510.8,-174 1510.8,-168 1510.8,-168 1510.8,-120 1510.8,-120 1510.8,-114 1516.8,-108 1522.8,-108 1522.8,-108 1643.18,-108 1643.18,-108 1649.18,-108 1655.18,-114 1655.18,-120 1655.18,-120 1655.18,-168 1655.18,-168 1655.18,-174 1649.18,-180 1643.18,-180"/>
<text text-anchor="middle" x="1582.99" y="-148.2" font-family="Arial" font-size="14.00">public&#45;subnets</text>
<text text-anchor="middle" x="1582.99" y="-131.4" font-family="Arial" font-size="14.00">(AWS::EC2::Subnet)</text>
</g>
<!-- public&#45;subnets&#45;&gt;vpc -->
<g id="edge3" class="edge">
<title>public&#45;subnets&#45;&gt;vpc</title>
<path fill="none" stroke="black" d="M1582.99,-107.7C1582.99,-99.93 1582.99,-91.57 1582.99,-83.43"/>
<polygon fill="black" stroke="black" points="1586.49,-83.66 1582.99,-73.66 1579.49,-83.66 1586.49,-83.66"/>
</g>
<!-- private&#45;subnets -->
<g id="node10" class="node">
<title>private&#45;subnets</title>
<path fill="#e6e6e6" stroke="black" stroke-width="2" d="M1843.18,-180C1843.18,-180 1722.8,-180 1722.8,-180 1716.8,-180 1710.8,-174 1710.8,-168 1710.8,-168 1710.8,-120 1710.8,-120 1710.8,-114 1716.8,-108 1722.8,-108 1722.8,-108 1843.18,-108 1843.18,-108 1849.18,-108 1855.18,-114 1855.18,-120 1855.18,-120 1855.18,-168 1855.18,-168 1855.18,-174 1849.18,-180 1843.18,-180"/>
<text text-anchor="middle" x="1782.99" y="-148.2" font-family="Arial" font-size="14.00">private&#45;subnets</text>
<text text-anchor="middle" x="1782.99" y="-131.4" font-family="Arial" font-size="14.00">(AWS::EC2::Subnet)</text>
</g>
<!-- private&#45;subnets&#45;&gt;vpc -->
<g id="edge4" class="edge">
<title>private&#45;subnets&#45;&gt;vpc</title>
<path fill="none" stroke="black" d="M1716.12,-107.56C1697.44,-97.66 1677.03,-86.84 1657.93,-76.71"/>
<polygon fill="black" stroke="black" points="1659.58,-73.63 1649.11,-72.04 1656.3,-79.82 1659.58,-73.63"/>
</g>
<!-- public&#45;route&#45;table -->
<g id="node11" class="node">
<title>public&#45;route&#45;table</title>
<path fill="#e6e6e6" stroke="black" stroke-width="2" d="M1562.19,-288C1562.19,-288 1413.8,-288 1413.8,-288 1407.8,-288 1401.8,-282 1401.8,-276 1401.8,-276 1401.8,-228 1401.8,-228 1401.8,-222 1407.8,-216 1413.8,-216 1413.8,-216 1562.19,-216 1562.19,-216 1568.19,-216 1574.19,-222 1574.19,-228 1574.19,-228 1574.19,-276 1574.19,-276 1574.19,-282 1568.19,-288 1562.19,-288"/>
<text text-anchor="middle" x="1487.99" y="-256.2" font-family="Arial" font-size="14.00">public&#45;route&#45;table</text>
<text text-anchor="middle" x="1487.99" y="-239.4" font-family="Arial" font-size="14.00">(AWS::EC2::RouteTable)</text>
</g>
<!-- public&#45;route&#45;table&#45;&gt;vpc -->
<g id="edge5" class="edge">
<title>public&#45;route&#45;table&#45;&gt;vpc</title>
<path fill="none" stroke="black" d="M1484.46,-215.78C1483,-185.53 1484.73,-141.62 1501.99,-108 1507.24,-97.79 1514.62,-88.39 1522.82,-80.01"/>
<polygon fill="black" stroke="black" points="1524.99,-82.77 1529.79,-73.33 1520.15,-77.72 1524.99,-82.77"/>
</g>
<!-- public&#45;route&#45;table&#45;&gt;public&#45;subnets -->
<g id="edge6" class="edge">
<title>public&#45;route&#45;table&#45;&gt;public&#45;subnets</title>
<path fill="none" stroke="black" d="M1519.63,-215.7C1527.4,-207.03 1535.81,-197.65 1543.89,-188.63"/>
<polygon fill="black" stroke="black" points="1546.42,-191.05 1550.49,-181.27 1541.21,-186.38 1546.42,-191.05"/>
</g>
<!-- private&#45;route&#45;table -->
<g id="node12" class="node">
<title>private&#45;route&#45;table</title>
<path fill="#e6e6e6" stroke="black" stroke-width="2" d="M1807.19,-288C1807.19,-288 1658.8,-288 1658.8,-288 1652.8,-288 1646.8,-282 1646.8,-276 1646.8,-276 1646.8,-228 1646.8,-228 1646.8,-222 1652.8,-216 1658.8,-216 1658.8,-216 1807.19,-216 1807.19,-216 1813.19,-216 1819.19,-222 1819.19,-228 1819.19,-228 1819.19,-276 1819.19,-276 1819.19,-282 1813.19,-288 1807.19,-288"/>
<text text-anchor="middle" x="1732.99" y="-256.2" font-family="Arial" font-size="14.00">private&#45;route&#45;table</text>
<text text-anchor="middle" x="1732.99" y="-239.4" font-family="Arial" font-size="14.00">(AWS::EC2::RouteTable)</text>
</g>
<!-- private&#45;route&#45;table&#45;&gt;vpc -->
<g id="edge7" class="edge">
<title>private&#45;route&#45;table&#45;&gt;vpc</title>
<path fill="none" stroke="black" d="M1717.82,-215.51C1702,-179.29 1677.64,-125.94 1663.99,-108 1656.54,-98.2 1647.56,-88.74 1638.33,-80.1"/>
<polygon fill="black" stroke="black" points="1640.72,-77.54 1630.95,-73.43 1636.02,-82.73 1640.72,-77.54"/>
</g>
<!-- private&#45;route&#45;table&#45;&gt;private&#45;subnets -->
<g id="edge8" class="edge">
<title>private&#45;route&#45;table&#45;&gt;private&#45;subnets</title>
<path fill="none" stroke="black" d="M1749.64,-215.7C1753.48,-207.57 1757.61,-198.8 1761.62,-190.31"/>
<polygon fill="black" stroke="black" points="1764.67,-192.05 1765.77,-181.51 1758.34,-189.06 1764.67,-192.05"/>
</g>
<!-- invoice&#45;records -->
<g id="node13" class="node">
<title>invoice&#45;records</title>
<path fill="#ffcfb3" stroke="black" stroke-width="2" d="M2016.68,-281.45C2016.68,-285.07 1976.48,-288 1926.99,-288 1877.51,-288 1837.31,-285.07 1837.31,-281.45 1837.31,-281.45 1837.31,-222.55 1837.31,-222.55 1837.31,-218.93 1877.51,-216 1926.99,-216 1976.48,-216 2016.68,-218.93 2016.68,-222.55 2016.68,-222.55 2016.68,-281.45 2016.68,-281.45"/>
<path fill="none" stroke="black" stroke-width="2" d="M2016.68,-281.45C2016.68,-277.84 1976.48,-274.91 1926.99,-274.91 1877.51,-274.91 1837.31,-277.84 1837.31,-281.45"/>
<text text-anchor="middle" x="1926.99" y="-256.2" font-family="Arial" font-size="14.00">invoice&#45;records</text>
<text text-anchor="middle" x="1926.99" y="-239.4" font-family="Arial" font-size="14.00">(AWS::DynamoDB::Table)</text>
</g>
<!-- step_function_iam_role -->
<g id="node15" class="node">
<title>step_function_iam_role</title>
<path fill="#e6e6e6" stroke="black" stroke-width="2" d="M893.37,-288C893.37,-288 756.61,-288 756.61,-288 750.61,-288 744.61,-282 744.61,-276 744.61,-276 744.61,-228 744.61,-228 744.61,-222 750.61,-216 756.61,-216 756.61,-216 893.37,-216 893.37,-216 899.37,-216 905.37,-222 905.37,-228 905.37,-228 905.37,-276 905.37,-276 905.37,-282 899.37,-288 893.37,-288"/>
<text text-anchor="middle" x="824.99" y="-256.2" font-family="Arial" font-size="14.00">step_function_iam_role</text>
<text text-anchor="middle" x="824.99" y="-239.4" font-family="Arial" font-size="14.00">(AWS::IAM::Role)</text>
</g>
<!-- step_function_iam_role&#45;&gt;invalid&#45;invoice&#45;error&#45;topic -->
<g id="edge11" class="edge">
<title>step_function_iam_role&#45;&gt;invalid&#45;invoice&#45;error&#45;topic</title>
<path fill="none" stroke="black" d="M744.28,-221.19C710.33,-208.65 670.54,-193.95 635.01,-180.83"/>
<polygon fill="black" stroke="black" points="636.63,-177.7 626.04,-177.52 634.21,-184.27 636.63,-177.7"/>
</g>
<!-- step_function_iam_role&#45;&gt;data&#45;storage&#45;failure&#45;topic -->
<g id="edge12" class="edge">
<title>step_function_iam_role&#45;&gt;data&#45;storage&#45;failure&#45;topic</title>
<path fill="none" stroke="black" d="M792.69,-215.7C784.76,-207.03 776.17,-197.65 767.92,-188.63"/>
<polygon fill="black" stroke="black" points="770.51,-186.27 761.17,-181.26 765.34,-191 770.51,-186.27"/>
</g>
<!-- table&#45;sanity&#45;check&#45;function -->
<g id="node17" class="node">
<title>table&#45;sanity&#45;check&#45;function</title>
<path fill="#b7e0ff" stroke="black" stroke-width="2" d="M1002.25,-180C1002.25,-180 843.73,-180 843.73,-180 837.73,-180 831.73,-174 831.73,-168 831.73,-168 831.73,-120 831.73,-120 831.73,-114 837.73,-108 843.73,-108 843.73,-108 1002.25,-108 1002.25,-108 1008.25,-108 1014.25,-114 1014.25,-120 1014.25,-120 1014.25,-168 1014.25,-168 1014.25,-174 1008.25,-180 1002.25,-180"/>
<text text-anchor="middle" x="922.99" y="-148.2" font-family="Arial" font-size="14.00">table&#45;sanity&#45;check&#45;function</text>
<text text-anchor="middle" x="922.99" y="-131.4" font-family="Arial" font-size="14.00">(AWS::Lambda::Function)</text>
</g>
<!-- step_function_iam_role&#45;&gt;table&#45;sanity&#45;check&#45;function -->
<g id="edge9" class="edge">
<title>step_function_iam_role&#45;&gt;table&#45;sanity&#45;check&#45;function</title>
<path fill="none" stroke="black" d="M857.63,-215.7C865.72,-206.94 874.5,-197.45 882.91,-188.35"/>
<polygon fill="black" stroke="black" points="885.26,-190.97 889.48,-181.25 880.12,-186.22 885.26,-190.97"/>
</g>
<!-- extract&#45;table&#45;data&#45;function -->
<g id="node18" class="node">
<title>extract&#45;table&#45;data&#45;function</title>
<path fill="#b7e0ff" stroke="black" stroke-width="2" d="M1235.31,-180C1235.31,-180 1080.67,-180 1080.67,-180 1074.67,-180 1068.67,-174 1068.67,-168 1068.67,-168 1068.67,-120 1068.67,-120 1068.67,-114 1074.67,-108 1080.67,-108 1080.67,-108 1235.31,-108 1235.31,-108 1241.31,-108 1247.31,-114 1247.31,-120 1247.31,-120 1247.31,-168 1247.31,-168 1247.31,-174 1241.31,-180 1235.31,-180"/>
<text text-anchor="middle" x="1157.99" y="-148.2" font-family="Arial" font-size="14.00">extract&#45;table&#45;data&#45;function</text>
<text text-anchor="middle" x="1157.99" y="-131.4" font-family="Arial" font-size="14.00">(AWS::Lambda::Function)</text>
</g>
<!-- step_function_iam_role&#45;&gt;extract&#45;table&#45;data&#45;function -->
<g id="edge10" class="edge">
<title>step_function_iam_role&#45;&gt;extract&#45;table&#45;data&#45;function</title>
<path fill="none" stroke="black" d="M905.6,-225.34C951.32,-210.79 1008.95,-192.44 1057.58,-176.96"/>
<polygon fill="black" stroke="black" points="1058.55,-180.33 1067.01,-173.96 1056.42,-173.66 1058.55,-180.33"/>
</g>
<!-- start&#45;step&#45;function&#45;lambda -->
<g id="node16" class="node">
<title>start&#45;step&#45;function&#45;lambda</title>
<path fill="#b7e0ff" stroke="black" stroke-width="2" d="M357.31,-288C357.31,-288 202.68,-288 202.68,-288 196.68,-288 190.68,-282 190.68,-276 190.68,-276 190.68,-228 190.68,-228 190.68,-222 196.68,-216 202.68,-216 202.68,-216 357.31,-216 357.31,-216 363.31,-216 369.31,-222 369.31,-228 369.31,-228 369.31,-276 369.31,-276 369.31,-282 363.31,-288 357.31,-288"/>
<text text-anchor="middle" x="279.99" y="-256.2" font-family="Arial" font-size="14.00">start&#45;step&#45;function&#45;lambda</text>
<text text-anchor="middle" x="279.99" y="-239.4" font-family="Arial" font-size="14.00">(AWS::Lambda::Function)</text>
</g>
<!-- start&#45;step&#45;function&#45;lambda&#45;&gt;start&#45;step&#45;function&#45;source&#45;code&#45;bucket -->
<g id="edge14" class="edge">
<title>start&#45;step&#45;function&#45;lambda&#45;&gt;start&#45;step&#45;function&#45;source&#45;code&#45;bucket</title>
<path fill="none" stroke="black" d="M288.65,-215.7C290.58,-207.84 292.65,-199.38 294.67,-191.15"/>
<polygon fill="black" stroke="black" points="298.03,-192.16 297.01,-181.61 291.23,-190.49 298.03,-192.16"/>
</g>
<!-- start&#45;step&#45;function&#45;lambda&#45;&gt;document&#45;event&#45;queue -->
<g id="edge13" class="edge">
<title>start&#45;step&#45;function&#45;lambda&#45;&gt;document&#45;event&#45;queue</title>
<path fill="none" stroke="black" d="M213.12,-215.56C195.1,-206.01 175.47,-195.61 156.96,-185.79"/>
<polygon fill="black" stroke="black" points="158.62,-182.71 148.14,-181.12 155.34,-188.89 158.62,-182.71"/>
</g>
<!-- table&#45;sanity&#45;check&#45;function&#45;&gt;table&#45;sanity&#45;check&#45;source&#45;code&#45;bucket -->
<g id="edge15" class="edge">
<title>table&#45;sanity&#45;check&#45;function&#45;&gt;table&#45;sanity&#45;check&#45;source&#45;code&#45;bucket</title>
<path fill="none" stroke="black" d="M916.67,-107.7C915.27,-99.93 913.77,-91.57 912.32,-83.43"/>
<polygon fill="black" stroke="black" points="915.77,-82.86 910.56,-73.63 908.88,-84.09 915.77,-82.86"/>
</g>
<!-- extract&#45;table&#45;data&#45;function&#45;&gt;extract&#45;table&#45;data&#45;source&#45;code&#45;bucket -->
<g id="edge16" class="edge">
<title>extract&#45;table&#45;data&#45;function&#45;&gt;extract&#45;table&#45;data&#45;source&#45;code&#45;bucket</title>
<path fill="none" stroke="black" d="M1163.99,-107.7C1165.31,-99.93 1166.73,-91.57 1168.11,-83.43"/>
<polygon fill="black" stroke="black" points="1171.55,-84.08 1169.77,-73.63 1164.65,-82.91 1171.55,-84.08"/>
</g>
</g>
</svg>
